<svg xmlns="http://www.w3.org/2000/svg" fill="none" viewBox="0 0 128 128">
    <path d="M44 14c-4.4 0-8 3.6-8 8v84c0 4.4 3.6 8 8 8s8-3.6 8-8V72.5l2.4-1.8c2.1-1.6 4.9-3.7 8.3-6.1 11-7.9 25.6-18.4 25.6-32.6 0-7.5-3.3-13.6-8.5-17.5-5-3.8-11.6-4.9-17.7-3.3-2.3.6-4.6-1.1-5.2-3.4-.6-2.3 1.1-4.6 3.4-5.2 8.7-2.3 18.5-.7 26.2 5.1 8.2 6.2 13.8 15.9 13.8 28.3 0 16.3-14.2 27.6-26.6 36.5l-6.9 4.9 8.1 6.8c12.2 10.2 26.1 21.8 26.1 35.8 0 2.4-1.9 4.3-4.3 4.3-2.4 0-4.3-1.9-4.3-4.3 0-9.6-10.4-18.3-20.3-26.6-6.6-5.5-12.2-10.2-15.6-13.3V106c0 4.4-3.6 8-8 8s-8-3.6-8-8V22c0-4.4 3.6-8 8-8z"/>
    <style>
        path { fill: #f97316; /* 默认为你的 Cookingdom 橙色，或者换成 Knit Out 的蓝色 #3b82f6 */ }
        @media (prefers-color-scheme: dark) {
            path { fill: #FFF; /* 深色模式变白 */ }
        }
    </style>
</svg>